<svg preserveAspectRatio="none" width="100%" height="100%" overflow="visible" style="display: block;" viewBox="0 0 50.464 40.172" fill="none" xmlns="http://www.w3.org/2000/svg">
<path id="&#226;&#128;&#156;" d="M24.402 2.158C23.2953 2.60067 21.8013 3.32 19.92 4.316C18.0387 5.20134 16.1573 6.41867 14.276 7.96801C12.5053 9.40667 10.956 11.1773 9.628 13.28C8.3 15.272 7.636 17.5407 7.636 20.086C7.636 22.41 7.91267 24.2913 8.466 25.73C8.68734 25.6193 8.90867 25.5087 9.13 25.398C9.462 25.2873 9.84933 25.1213 10.292 24.9C10.7347 24.7893 11.1773 24.734 11.62 24.734C12.0627 24.6233 12.616 24.568 13.28 24.568C15.3827 24.568 16.9873 25.2873 18.094 26.726C19.2007 28.1647 19.754 29.714 19.754 31.374C19.754 34.03 18.9793 36.188 17.43 37.848C15.9913 39.3973 13.8333 40.172 10.956 40.172C7.636 40.172 4.98 39.01 2.988 36.686C0.996002 34.362 0 31.4293 0 27.888C0 23.1293 1.05134 19.09 3.154 15.77C5.25667 12.3393 7.636 9.51734 10.292 7.304C13.0587 5.09067 15.7147 3.43066 18.26 2.324C20.916 1.10667 22.742 0.332002 23.738 0L24.402 2.158ZM50.464 2.158C49.3573 2.60067 47.8633 3.32 45.982 4.316C44.1007 5.20134 42.2193 6.41867 40.338 7.96801C38.5673 9.40667 37.018 11.1773 35.69 13.28C34.362 15.272 33.698 17.5407 33.698 20.086C33.698 22.41 33.9747 24.2913 34.528 25.73C34.7493 25.6193 34.9707 25.5087 35.192 25.398C35.524 25.2873 35.9113 25.1213 36.354 24.9C36.7967 24.7893 37.2393 24.734 37.682 24.734C38.1247 24.6233 38.678 24.568 39.342 24.568C41.4447 24.568 43.0493 25.2873 44.156 26.726C45.2627 28.1647 45.816 29.714 45.816 31.374C45.816 34.03 45.0413 36.188 43.492 37.848C42.0533 39.3973 39.8953 40.172 37.018 40.172C33.698 40.172 31.042 39.01 29.05 36.686C27.058 34.362 26.062 31.4293 26.062 27.888C26.062 23.1293 27.1133 19.09 29.216 15.77C31.3187 12.3393 33.698 9.51734 36.354 7.304C39.1207 5.09067 41.7767 3.43066 44.322 2.324C46.978 1.10667 48.804 0.332002 49.8 0L50.464 2.158Z" fill="url(#paint0_linear_0_4)"/>
<defs>
<linearGradient id="paint0_linear_0_4" x1="4.02065" y1="-0.323965" x2="4.02065" y2="39.2576" gradientUnits="userSpaceOnUse">
<stop stop-color="#F0DF7A"/>
<stop offset="1" stop-color="#C9A572"/>
</linearGradient>
</defs>
</svg>
