<svg preserveAspectRatio="none" width="100%" height="100%" overflow="visible" style="display: block;" viewBox="0 0 27 27" fill="none" xmlns="http://www.w3.org/2000/svg">
<g id="circle-check 1" clip-path="url(#clip0_0_4)">
<path id="Vector" d="M13.5 27C9.91958 27 6.4858 25.5777 3.95406 23.0459C1.42232 20.5142 0 17.0804 0 13.5C0 9.91958 1.42232 6.4858 3.95406 3.95406C6.4858 1.42232 9.91958 0 13.5 0C17.0804 0 20.5142 1.42232 23.0459 3.95406C25.5777 6.4858 27 9.91958 27 13.5C27 17.0804 25.5777 20.5142 23.0459 23.0459C20.5142 25.5777 17.0804 27 13.5 27ZM11.8125 15.0873L8.4375 11.7123L6.6498 13.5L10.9213 17.7715C11.417 18.2672 12.2186 18.2672 12.709 17.7715L20.3555 10.125L18.5678 8.33731L11.8178 15.0873H11.8125Z" fill="var(--fill-0, #F0DF7A)"/>
</g>
<defs>
<clipPath id="clip0_0_4">
<rect width="27" height="27" fill="white"/>
</clipPath>
</defs>
</svg>
