<svg width="685" height="70" viewBox="0 0 685 70" fill="none" xmlns="http://www.w3.org/2000/svg">
<path d="M54.3 12C52.7 12 51.3001 11.4 50.1001 10.2C48.9001 9.00001 48.3 7.6 48.3 6C48.3 4.4 48.9001 2.99999 50.1001 1.79999C51.3001 0.599988 52.7 0 54.3 0C55.9 0 57.4 0.599988 58.5 1.79999C59.7 2.99999 60.3 4.4 60.3 6C60.3 7.6 59.7 9.00001 58.5 10.2C57.4 11.4 56 12 54.3 12Z" fill="#F7E280"/>
<path d="M59.2 16.5H49.5V53.9H59.2V16.5Z" fill="#F7E280"/>
<path d="M96.6999 16.5H106.1V52.1C106.1 57.9 104.2 62.3 100.4 65.4C96.5999 68.4 91.9999 70 86.5999 70C82.5999 70 78.9999 69.2 75.8999 67.7C72.7999 66.2 70.4999 63.9 68.7999 60.9L76.9999 56.2C78.8999 59.7 82.1999 61.4 86.7999 61.4C89.7999 61.4 92.1999 60.6 93.9999 59C95.6999 57.4 96.5999 55.1 96.5999 52.2V48.2C93.7999 52 89.7999 53.9 84.5999 53.9C79.2999 53.9 74.8999 52 71.2999 48.3C67.6999 44.6 65.8999 40.1 65.8999 34.7C65.8999 29.4 67.6999 24.9 71.2999 21.1C74.8999 17.4 79.2999 15.5 84.5999 15.5C89.6999 15.5 93.6999 17.4 96.5999 21.2V16.5H96.6999ZM78.6999 42C80.6999 43.9 83.1999 44.9 86.1999 44.9C89.1999 44.9 91.7999 43.9 93.6999 42C95.6999 40.1 96.6999 37.6 96.6999 34.6C96.6999 31.7 95.6999 29.2 93.6999 27.3C91.6999 25.4 89.1999 24.4 86.1999 24.4C83.1999 24.4 80.5999 25.4 78.6999 27.3C76.6999 29.2 75.6999 31.7 75.6999 34.6C75.6999 37.6 76.6999 40 78.6999 42Z" fill="#F7E280"/>
<path d="M135.7 15.4C139.8 15.4 143.2 16.8 145.8 19.5C148.5 22.2 149.8 26 149.8 30.9V53.9H140.1V32.1C140.1 29.6 139.4 27.7 138.1 26.4C136.8 25.1 135 24.4 132.7 24.4C130.2 24.4 128.2 25.2 126.7 26.7C125.2 28.2 124.5 30.6 124.5 33.7V53.9H114.8V1.5H124.5V20.7C126.9 17.2 130.6 15.4 135.7 15.4Z" fill="#F7E280"/>
<path d="M32.7001 27.0999L6.1001 43.9999V30.7999L32.7001 13.8999V27.0999Z" fill="#F7E280"/>
<path d="M10.3 1.5H0V53.9H10.3V1.5Z" fill="#F7E280"/>
<path d="M40.6999 1.5H30.3999V53.9H40.6999V1.5Z" fill="#F7E280"/>
<path d="M155.5 9.90009H170.1V53.3001H176.7V9.90009H191.4V3.6001H155.5V9.90009Z" fill="white"/>
<path d="M200.4 3.1001C199.2 3.1001 198.2 3.50008 197.4 4.30008C196.6 5.10008 196.2 6.1001 196.2 7.2001C196.2 8.3001 196.6 9.3001 197.4 10.1001C198.2 10.9001 199.2 11.3001 200.4 11.3001C201.5 11.3001 202.5 10.9001 203.3 10.1001C204.1 9.3001 204.5 8.3001 204.5 7.2001C204.5 6.1001 204.1 5.10008 203.3 4.30008C202.5 3.50008 201.5 3.1001 200.4 3.1001Z" fill="#F7E280"/>
<path d="M203.4 17.7998H197.2V53.2998H203.4V17.7998Z" fill="white"/>
<path d="M235.9 46.3999C234 47.4999 231.9 48.0999 229.5 48.0999C226 48.0999 223 46.8999 220.6 44.4999C218.2 42.0999 217 39.0999 217 35.5999C217 31.9999 218.2 28.9999 220.6 26.5999C223 24.1999 226 22.9999 229.5 22.9999C231.9 22.9999 234 23.5999 235.8 24.6999C237.7 25.7999 239.1 27.2999 239.9 29.1999L245.1 26.1999C243.7 23.3999 241.6 21.0999 238.9 19.3999C236.1 17.6999 233 16.8999 229.5 16.8999C224.2 16.8999 219.7 18.6999 216.2 22.2999C212.7 25.8999 210.9 30.2999 210.9 35.5999C210.9 40.8999 212.7 45.2999 216.2 48.8999C219.7 52.4999 224.2 54.2999 229.5 54.2999C233 54.2999 236.1 53.4999 238.9 51.7999C241.7 50.0999 243.9 47.8999 245.4 45.0999L240.2 42.0999C239.2 43.7999 237.8 45.2999 235.9 46.3999Z" fill="white"/>
<path d="M281 17.8001H273.1L257.7 33.4001V3.6001H251.6V53.3001H257.7V36.5001L273.9 53.3001H281.6L264.1 35.0001L281 17.8001Z" fill="white"/>
<path d="M300.7 16.8999C295.2 16.8999 290.7 18.6999 287.3 22.1999C283.8 25.6999 282.1 30.1999 282.1 35.4999C282.1 40.8999 283.9 45.2999 287.4 48.8999C290.9 52.3999 295.5 54.1999 301.1 54.1999C308.1 54.1999 313.3 51.4999 316.7 46.1999L311.5 43.1999C309.4 46.6999 306 48.3999 301.3 48.3999C297.9 48.3999 295.1 47.4999 292.8 45.7999C290.5 44.0999 289.1 41.5999 288.4 38.3999H318.1C318.2 37.4999 318.3 36.4999 318.3 35.5999C318.3 30.3999 316.7 25.9999 313.4 22.3999C310.1 18.6999 305.9 16.8999 300.7 16.8999ZM288.4 32.9999C288.9 29.8999 290.3 27.3999 292.4 25.4999C294.6 23.5999 297.3 22.6999 300.6 22.6999C303.4 22.6999 305.9 23.5999 308 25.2999C310.1 27.0999 311.5 29.5999 312 32.9999H288.4Z" fill="white"/>
<path d="M332.1 3.6001H325.9V43.0001C325.9 47.4001 327.2 50.4001 329.7 52.0001C332.2 53.6001 336.2 54.0001 341.5 53.3001V47.8001C339.4 47.9001 337.7 47.9001 336.3 47.9001C334.9 47.9001 333.8 47.5001 333.1 46.8001C332.4 46.1001 332.1 44.8001 332.1 43.1001V23.9001H341.5V17.9001H332.1V3.6001Z" fill="white"/>
<path d="M374.1 9.10019C377.5 9.10019 380.6 9.90018 383.4 11.5002C386.2 13.1002 388.3 15.3002 389.7 18.1002L395.4 14.8002C393.3 11.1002 390.3 8.20018 386.5 6.00018C382.7 3.80018 378.5 2.7002 374 2.7002C366.5 2.7002 360.3 5.20019 355.4 10.1002C350.5 15.1002 348.1 21.2002 348.1 28.4002C348.1 35.6002 350.5 41.7002 355.4 46.7002C360.3 51.7002 366.5 54.1002 374 54.1002C378.5 54.1002 382.7 53.0002 386.6 50.8002C390.4 48.6002 393.4 45.7002 395.5 42.0002L389.8 38.7002C388.4 41.4002 386.3 43.6002 383.5 45.2002C380.7 46.8002 377.6 47.6002 374.2 47.6002C368.5 47.6002 363.8 45.8002 360.2 42.1002C356.6 38.4002 354.8 33.8002 354.8 28.3002C354.8 22.8002 356.6 18.2002 360.2 14.5002C363.7 10.9002 368.3 9.10019 374.1 9.10019Z" fill="white"/>
<path d="M418.8 16.8999C413.6 16.8999 409.2 18.6999 405.6 22.2999C402 25.8999 400.2 30.2999 400.2 35.5999C400.2 40.7999 402 45.2999 405.6 48.8999C409.2 52.4999 413.6 54.2999 418.8 54.2999C424 54.2999 428.4 52.4999 432.1 48.8999C435.7 45.2999 437.6 40.8999 437.6 35.5999C437.6 30.3999 435.8 25.8999 432.1 22.2999C428.4 18.6999 424 16.8999 418.8 16.8999ZM427.8 44.4999C425.4 46.8999 422.4 48.0999 418.9 48.0999C415.4 48.0999 412.4 46.8999 410 44.4999C407.6 42.0999 406.4 39.0999 406.4 35.4999C406.4 31.8999 407.6 28.8999 410 26.4999C412.4 24.0999 415.4 22.8999 418.9 22.8999C422.4 22.8999 425.4 24.0999 427.8 26.4999C430.2 28.8999 431.4 31.8999 431.4 35.4999C431.4 39.0999 430.2 42.0999 427.8 44.4999Z" fill="white"/>
<path d="M462.5 16.8999C457.3 16.8999 453.5 18.8999 451 22.8999V17.7999H444.8V53.2999H451V34.4999C451 30.4999 451.9 27.5999 453.8 25.6999C455.7 23.7999 458.2 22.7999 461.2 22.7999C463.9 22.7999 466.1 23.5999 467.7 25.1999C469.3 26.7999 470 28.9999 470 31.8999V53.2999H476.2V31.4999C476.2 26.9999 474.9 23.3999 472.4 20.7999C470 18.1999 466.7 16.8999 462.5 16.8999Z" fill="white"/>
<path d="M503.1 34.2999C501.2 33.6999 499.2 33.1999 497.3 32.5999C495.4 31.9999 493.7 31.2999 492.3 30.4999C490.9 29.6999 490.2 28.5999 490.2 27.2999C490.2 25.7999 490.8 24.6999 492 23.8999C493.2 23.0999 494.7 22.6999 496.5 22.6999C500.3 22.6999 502.8 24.1999 504.1 27.1999L509.3 24.2999C508.2 21.9999 506.5 20.1999 504.2 18.8999C502 17.5999 499.4 16.8999 496.5 16.8999C492.9 16.8999 489.9 17.8999 487.5 19.8999C485.1 21.8999 483.9 24.3999 483.9 27.4999C483.9 29.8999 484.6 31.7999 486 33.2999C487.4 34.7999 489 35.8999 491 36.3999C492.9 36.9999 494.9 37.5999 496.8 38.0999C498.7 38.6999 500.4 39.3999 501.7 40.1999C503.1 40.9999 503.8 42.0999 503.8 43.4999C503.8 45.1999 503.1 46.3999 501.8 47.0999C500.5 47.8999 498.8 48.2999 496.8 48.2999C494.6 48.2999 492.8 47.7999 491.2 46.7999C489.6 45.7999 488.6 44.4999 488 42.7999L482.7 45.7999C483.7 48.2999 485.5 50.2999 487.9 51.7999C490.4 53.2999 493.3 54.0999 496.8 54.0999C500.7 54.0999 503.9 53.0999 506.3 51.1999C508.7 49.2999 510 46.6999 510 43.4999C510 40.9999 509.3 38.9999 508 37.3999C506.7 35.8999 505 34.7999 503.1 34.2999Z" fill="white"/>
<path d="M541.5 36.5998C541.5 40.5998 540.6 43.4998 538.7 45.3998C536.8 47.2998 534.3 48.2998 531.3 48.2998C528.6 48.2998 526.4 47.4998 524.8 45.8998C523.2 44.2998 522.5 42.0998 522.5 39.1998V17.7998H516.3V39.5998C516.3 44.0998 517.6 47.6998 520.1 50.2998C522.6 52.8998 525.9 54.1998 530.1 54.1998C535.3 54.1998 539.1 52.1998 541.6 48.1998V53.2998H547.8V17.7998H541.6V36.5998H541.5Z" fill="white"/>
<path d="M563.2 1.5H557V53.3H563.2V1.5Z" fill="white"/>
<path d="M577.2 1.5H571V43C571 47.4 572.3 50.4 574.8 52C577.3 53.6 581.3 54 586.6 53.3V47.8C584.5 47.9 582.8 47.9 581.4 47.9C580 47.9 578.9 47.5 578.2 46.8C577.5 46.1 577.2 44.8 577.2 43.1V23.9H586.6V17.9H577.2V1.5Z" fill="white"/>
<path d="M600.2 17.7998H594V53.2998H600.2V17.7998Z" fill="white"/>
<path d="M597.1 3.1001C595.9 3.1001 594.9 3.50008 594.1 4.30008C593.3 5.10008 592.9 6.1001 592.9 7.2001C592.9 8.3001 593.3 9.3001 594.1 10.1001C594.9 10.9001 595.9 11.3001 597.1 11.3001C598.2 11.3001 599.2 10.9001 600 10.1001C600.8 9.3001 601.2 8.3001 601.2 7.2001C601.2 6.1001 600.8 5.10008 600 4.30008C599.2 3.50008 598.2 3.1001 597.1 3.1001Z" fill="#F7E280"/>
<path d="M627.2 16.8999C622 16.8999 618.2 18.8999 615.7 22.8999V17.7999H609.6V53.2999H615.8V34.4999C615.8 30.4999 616.7 27.5999 618.6 25.6999C620.5 23.7999 623 22.7999 626 22.7999C628.7 22.7999 630.9 23.5999 632.5 25.1999C634.1 26.7999 634.8 28.9999 634.8 31.8999V53.2999H641V31.4999C641 26.9999 639.7 23.3999 637.2 20.7999C634.7 18.1999 631.4 16.8999 627.2 16.8999Z" fill="white"/>
<path d="M679 17.7999V23.8999C675.9 19.1999 671.5 16.8999 665.7 16.8999C660.6 16.8999 656.4 18.6999 652.9 22.2999C649.4 25.8999 647.7 30.1999 647.7 35.3999C647.7 40.5999 649.4 44.8999 652.9 48.4999C656.4 52.0999 660.7 53.8999 665.7 53.8999C671.5 53.8999 675.9 51.4999 679 46.7999V51.7999C679 55.1999 677.9 57.7999 675.8 59.6999C673.7 61.5999 670.8 62.5999 667.1 62.5999C661.3 62.5999 657.5 60.5999 655.5 56.5999L650.1 59.5999C651.6 62.3999 653.7 64.4999 656.6 65.9999C659.5 67.4999 662.9 68.1999 666.9 68.1999C671.9 68.1999 676.1 66.6999 679.7 63.7999C683.2 60.8999 685 56.7999 685 51.5999V17.5999H679V17.7999ZM675.4 44.2999C673 46.6999 670 47.8999 666.4 47.8999C662.8 47.8999 659.8 46.6999 657.4 44.2999C655 41.8999 653.8 38.8999 653.8 35.2999C653.8 31.7999 655 28.7999 657.4 26.3999C659.8 23.9999 662.8 22.7999 666.4 22.7999C670 22.7999 673 23.9999 675.4 26.3999C677.8 28.7999 679 31.7999 679 35.2999C679 38.8999 677.8 41.8999 675.4 44.2999Z" fill="white"/>
</svg>
