<svg width="1247" height="154" viewBox="0 0 1247 154" fill="none" xmlns="http://www.w3.org/2000/svg">
<g opacity="0.64">
<path d="M1216.25 151.627C1218.97 146.083 1219.45 140.325 1219.45 134.567V19.4067C1219.45 13.6487 1218.97 7.89069 1216.25 2.34595H1246.65C1243.93 7.89069 1243.45 13.6487 1243.45 19.4067V134.567C1243.45 140.325 1243.93 146.083 1246.65 151.627H1216.25Z" fill="url(#paint0_linear_2010_194)"/>
<path d="M1116.85 2.34595C1116.05 7.89069 1117.49 14.2885 1119.09 19.4067L1147.89 110.255L1174.45 25.8045C1176.05 20.6863 1177.97 7.89069 1177.17 2.34595H1206.61C1203.89 7.89069 1203.41 13.6487 1203.41 19.4067V134.567C1203.41 140.325 1203.89 146.083 1206.61 151.627H1176.21C1178.93 146.083 1179.41 140.325 1179.41 134.567V23.8851L1139.09 151.627H1134.77L1093.01 19.4067C1092.85 18.7669 1092.53 18.1271 1092.38 17.4874V121.558C1092.38 127.316 1094.45 146.083 1097.17 151.627H1085.97C1088.69 146.083 1089.17 129.449 1089.17 123.691V9.59677C1087.89 7.25091 1086.3 4.90506 1084.38 2.34595H1116.85Z" fill="url(#paint1_linear_2010_194)"/>
<path d="M1014.17 42.4387L998.494 92.1281H1029.85L1014.17 42.4387ZM1078.01 151.627H1045.53C1046.33 146.083 1044.89 139.685 1043.29 134.567L1031.29 96.3933H997.214L987.134 128.169C984.414 136.699 983.614 146.083 986.014 151.627H972.894C977.374 146.083 981.694 134.353 983.614 128.169L1023.29 2.34595H1027.61L1069.37 134.567C1071.29 140.751 1073.53 146.083 1078.01 151.627Z" fill="url(#paint2_linear_2010_194)"/>
<path d="M895.325 6.39787V79.5458H907.965C926.525 79.5458 937.405 68.0298 937.405 43.0785C937.405 17.9139 926.525 6.39787 907.965 6.39787H895.325ZM868.125 2.34595H907.485C942.365 2.34595 961.725 18.7669 961.725 43.0785C961.725 62.2718 949.405 76.5602 926.845 81.6784L956.925 134.567C960.445 140.751 963.965 146.083 969.725 151.627H933.085C932.605 146.083 929.565 139.472 926.685 134.567L897.885 83.5978H895.325V134.567C895.325 140.325 895.805 146.083 898.525 151.627H868.125C870.845 146.083 871.325 140.325 871.325 134.567V19.4067C871.325 13.6487 870.845 7.89069 868.125 2.34595Z" fill="url(#paint3_linear_2010_194)"/>
<path d="M831.248 114.52V21.5393C831.248 15.1415 830.768 8.53048 828.048 2.34595H858.448C855.728 8.10395 855.248 14.5017 855.248 20.473V108.336C855.248 136.486 840.208 153.76 817.648 153.76C795.888 153.76 784.688 137.552 783.088 107.056H794.928C791.568 132.647 797.808 146.509 812.688 146.509C825.488 146.509 831.248 136.486 831.248 114.52Z" fill="url(#paint4_linear_2010_194)"/>
<path d="M717.612 42.4387L701.932 92.1281H733.292L717.612 42.4387ZM781.452 151.627H748.972C749.772 146.083 748.332 139.685 746.732 134.567L734.732 96.3933H700.652L690.572 128.169C687.852 136.699 687.052 146.083 689.452 151.627H676.332C680.812 146.083 685.132 134.353 687.052 128.169L726.732 2.34595H731.052L772.812 134.567C774.732 140.751 776.972 146.083 781.452 151.627Z" fill="url(#paint5_linear_2010_194)"/>
<path d="M606.731 68.0298V147.362H619.691C640.011 147.362 652.011 134.993 652.011 107.696C652.011 80.6121 640.011 68.0298 619.691 68.0298H606.731ZM606.731 6.61114V63.9779H616.491C633.771 63.9779 644.011 54.8077 644.011 35.1879C644.011 15.568 633.771 6.61114 616.491 6.61114H606.731ZM618.571 151.627H579.531C582.251 146.083 582.731 140.325 582.731 134.567V19.4067C582.731 13.6487 582.251 7.89069 579.531 2.34595H616.491C649.771 2.34595 668.331 15.568 668.331 35.1879C668.331 50.116 657.611 61.2055 637.931 65.8972C662.731 71.0155 676.331 86.5834 676.331 107.696C676.331 133.927 655.691 151.627 618.571 151.627Z" fill="url(#paint6_linear_2010_194)"/>
<path d="M421.057 76.9866C421.057 30.9226 442.977 0 476.257 0C509.537 0 531.457 30.9226 531.457 76.9866C531.457 123.051 509.537 153.76 476.257 153.76C442.977 153.76 421.057 123.051 421.057 76.9866ZM445.377 76.3468C445.377 127.103 458.977 150.135 476.257 150.135C493.537 150.135 507.137 127.103 507.137 76.3468C507.137 26.6574 493.537 3.62541 476.257 3.62541C458.977 3.62541 445.377 26.6574 445.377 76.3468Z" fill="url(#paint7_linear_2010_194)"/>
<path d="M409.835 151.627H406.635L325.995 17.4874V121.558C325.995 127.316 328.075 146.083 330.795 151.627H319.595C322.315 146.083 322.795 129.449 322.795 123.691V12.1559L316.875 2.34595H347.755L406.635 100.232V32.4155C406.635 26.6575 404.555 7.89069 401.835 2.34595H413.035C410.315 7.89069 409.835 24.5249 409.835 30.2829V151.627Z" fill="url(#paint8_linear_2010_194)"/>
<path d="M240.012 103.644C240.012 130.088 251.533 146.509 268.813 146.509C286.573 146.509 300.813 129.022 300.813 103.004V32.4155C300.813 26.6575 298.732 7.89069 296.012 2.34595H307.213C304.493 7.89069 304.012 24.5249 304.012 30.2829V103.004C304.012 135.633 288.493 153.76 263.213 153.76C235.853 153.76 216.012 132.647 216.012 103.644V19.62C216.012 13.862 215.533 7.89069 212.812 2.34595H243.212C240.492 7.89069 240.012 13.862 240.012 19.62V103.644Z" fill="url(#paint9_linear_2010_194)"/>
<path d="M132.044 6.39787V79.5458H144.684C163.244 79.5458 174.124 68.0298 174.124 43.0785C174.124 17.9139 163.244 6.39787 144.684 6.39787H132.044ZM104.844 2.34595H144.204C179.084 2.34595 198.444 18.7669 198.444 43.0785C198.444 62.2718 186.124 76.5602 163.564 81.6784L193.644 134.567C197.164 140.751 200.684 146.083 206.444 151.627H169.804C169.324 146.083 166.284 139.472 163.404 134.567L134.604 83.5978H132.044V134.567C132.044 140.325 132.524 146.083 135.244 151.627H104.844C107.564 146.083 108.044 140.325 108.044 134.567V19.4067C108.044 13.6487 107.564 7.89069 104.844 2.34595Z" fill="url(#paint10_linear_2010_194)"/>
<path d="M27.2 68.0298V147.362H40.16C60.48 147.362 72.48 134.993 72.48 107.696C72.48 80.6121 60.48 68.0298 40.16 68.0298H27.2ZM27.2 6.61114V63.9779H36.96C54.24 63.9779 64.48 54.8077 64.48 35.1879C64.48 15.568 54.24 6.61114 36.96 6.61114H27.2ZM39.04 151.627H0C2.72 146.083 3.2 140.325 3.2 134.567V19.4067C3.2 13.6487 2.72 7.89069 0 2.34595H36.96C70.24 2.34595 88.8 15.568 88.8 35.1879C88.8 50.116 78.08 61.2055 58.4 65.8972C83.2 71.0155 96.8 86.5834 96.8 107.696C96.8 133.927 76.16 151.627 39.04 151.627Z" fill="url(#paint11_linear_2010_194)"/>
</g>
<defs>
<linearGradient id="paint0_linear_2010_194" x1="1218.67" y1="1.14207" x2="1218.67" y2="148.229" gradientUnits="userSpaceOnUse">
<stop stop-color="#F0DF7A"/>
<stop offset="1" stop-color="#C9A572"/>
</linearGradient>
<linearGradient id="paint1_linear_2010_194" x1="1094.11" y1="1.14207" x2="1094.11" y2="148.229" gradientUnits="userSpaceOnUse">
<stop stop-color="#F0DF7A"/>
<stop offset="1" stop-color="#C9A572"/>
</linearGradient>
<linearGradient id="paint2_linear_2010_194" x1="981.269" y1="1.14207" x2="981.269" y2="148.229" gradientUnits="userSpaceOnUse">
<stop stop-color="#F0DF7A"/>
<stop offset="1" stop-color="#C9A572"/>
</linearGradient>
<linearGradient id="paint3_linear_2010_194" x1="876.22" y1="1.14207" x2="876.22" y2="148.229" gradientUnits="userSpaceOnUse">
<stop stop-color="#F0DF7A"/>
<stop offset="1" stop-color="#C9A572"/>
</linearGradient>
<linearGradient id="paint4_linear_2010_194" x1="789.092" y1="1.12488" x2="789.092" y2="150.313" gradientUnits="userSpaceOnUse">
<stop stop-color="#F0DF7A"/>
<stop offset="1" stop-color="#C9A572"/>
</linearGradient>
<linearGradient id="paint5_linear_2010_194" x1="684.707" y1="1.14207" x2="684.707" y2="148.229" gradientUnits="userSpaceOnUse">
<stop stop-color="#F0DF7A"/>
<stop offset="1" stop-color="#C9A572"/>
</linearGradient>
<linearGradient id="paint6_linear_2010_194" x1="587.244" y1="1.14207" x2="587.244" y2="148.229" gradientUnits="userSpaceOnUse">
<stop stop-color="#F0DF7A"/>
<stop offset="1" stop-color="#C9A572"/>
</linearGradient>
<linearGradient id="paint7_linear_2010_194" x1="429.853" y1="-1.23999" x2="429.853" y2="150.26" gradientUnits="userSpaceOnUse">
<stop stop-color="#F0DF7A"/>
<stop offset="1" stop-color="#C9A572"/>
</linearGradient>
<linearGradient id="paint8_linear_2010_194" x1="324.536" y1="1.14207" x2="324.536" y2="148.229" gradientUnits="userSpaceOnUse">
<stop stop-color="#F0DF7A"/>
<stop offset="1" stop-color="#C9A572"/>
</linearGradient>
<linearGradient id="paint9_linear_2010_194" x1="220.334" y1="1.12488" x2="220.334" y2="150.313" gradientUnits="userSpaceOnUse">
<stop stop-color="#F0DF7A"/>
<stop offset="1" stop-color="#C9A572"/>
</linearGradient>
<linearGradient id="paint10_linear_2010_194" x1="112.939" y1="1.14207" x2="112.939" y2="148.229" gradientUnits="userSpaceOnUse">
<stop stop-color="#F0DF7A"/>
<stop offset="1" stop-color="#C9A572"/>
</linearGradient>
<linearGradient id="paint11_linear_2010_194" x1="7.71241" y1="1.14207" x2="7.71241" y2="148.229" gradientUnits="userSpaceOnUse">
<stop stop-color="#F0DF7A"/>
<stop offset="1" stop-color="#C9A572"/>
</linearGradient>
</defs>
</svg>
